<?xml version="1.0" encoding="iso-8859-1"?>
<!-- Generator: Adobe Illustrator 19.0.0, SVG Export Plug-In . SVG Version: 6.00 Build 0)  -->
<svg version="1.1" id="Layer_1" xmlns="http://www.w3.org/2000/svg" xmlns:xlink="http://www.w3.org/1999/xlink" x="0px" y="0px"
	 viewBox="0 0 512 512" style="enable-background:new 0 0 512 512;" xml:space="preserve">
<g>
	<g>
		<g>
			<path d="M299.507,104.333c32.043,4.949,57.323,30.229,62.272,62.272c0.171,1.109,1.6,1.109,1.771,0
				c4.949-32.043,30.229-57.323,62.272-62.272c1.131-0.171,1.131-1.6,0-1.771c-32.043-4.971-57.323-30.251-62.272-62.293
				c-0.171-1.109-1.6-1.109-1.771,0c-4.949,32.043-30.229,57.323-62.272,62.293C298.377,102.733,298.377,104.162,299.507,104.333z"
				/>
			<path d="M505.6,196.525c-1.707-7.637-7.467-13.739-14.997-15.851c-7.573-2.176-15.659,0-21.077,5.632
				c-28.395,29.099-66.368,45.141-106.859,45.141c-82.347,0-149.333-66.987-149.333-149.333c0-16.917,2.987-33.856,8.917-50.368
				c2.645-7.339,1.045-15.573-4.181-21.397c-5.227-5.845-13.269-8.341-20.779-6.571C81.131,31.106,0,133.507,0,252.781
				c0,141.141,114.837,256,256,256s256-114.859,256-256C512,234.349,509.845,215.426,505.6,196.525z"/>
		</g>
	</g>
</g>
<g>
</g>
<g>
</g>
<g>
</g>
<g>
</g>
<g>
</g>
<g>
</g>
<g>
</g>
<g>
</g>
<g>
</g>
<g>
</g>
<g>
</g>
<g>
</g>
<g>
</g>
<g>
</g>
<g>
</g>
</svg>